<svg xmlns="http://www.w3.org/2000/svg" width="29" height="28" viewBox="0 0 29 28">
  <g id="Group_129" data-name="Group 129" transform="translate(-1950 -515)">
    <g id="Group_100" data-name="Group 100">
      <g id="Rectangle_231" data-name="Rectangle 231" transform="translate(1950 515)" fill="#28292e" stroke="#fff" stroke-width="1">
        <rect width="29" height="28" rx="3" stroke="none"/>
        <rect x="0.5" y="0.5" width="28" height="27" rx="2.5" fill="none"/>
      </g>
      <path id="Icon_awesome-eye" data-name="Icon awesome-eye" d="M16.781,9.7a9.4,9.4,0,0,0-8.34-5.2A9.4,9.4,0,0,0,.1,9.7a.948.948,0,0,0,0,.856,9.4,9.4,0,0,0,8.34,5.2,9.4,9.4,0,0,0,8.34-5.2A.948.948,0,0,0,16.781,9.7Zm-8.34,4.649a4.221,4.221,0,1,1,4.221-4.221A4.221,4.221,0,0,1,8.442,14.348Zm0-7.035a2.794,2.794,0,0,0-.742.111A1.4,1.4,0,0,1,5.739,9.386a2.807,2.807,0,1,0,2.7-2.072Z" transform="translate(1955.659 519.281)" fill="#fff"/>
    </g>
  </g>
</svg>
