<svg xmlns="http://www.w3.org/2000/svg" xmlns:xlink="http://www.w3.org/1999/xlink" viewBox="0 0 1920 956">
  <defs>
    <clipPath id="clip-path">
      <rect width="1863" height="938" fill="none"/>
    </clipPath>
    <clipPath id="clip-path-2">
      <rect width="1920" height="925" fill="none"/>
    </clipPath>
  </defs>
  <g id="Group_112" data-name="Group 112" transform="translate(-464.5 -583.88)">
    <g id="Repeat_Grid_1" data-name="Repeat Grid 1" transform="translate(521.5 583.88)" opacity="0.597" clip-path="url(#clip-path)">
      <g transform="translate(-521.5 -586.5)">
        <line id="Line_37" data-name="Line 37" y2="494" transform="translate(522 586.5)" fill="none" stroke="rgba(51,54,59,0.3)" stroke-width="1"/>
      </g>
      <g transform="translate(-472.5 -586.5)">
        <line id="Line_37-2" data-name="Line 37" y2="494" transform="translate(522 586.5)" fill="none" stroke="rgba(51,54,59,0.3)" stroke-width="1"/>
      </g>
      <g transform="translate(-423.5 -586.5)">
        <line id="Line_37-3" data-name="Line 37" y2="494" transform="translate(522 586.5)" fill="none" stroke="rgba(51,54,59,0.3)" stroke-width="1"/>
      </g>
      <g transform="translate(-374.5 -586.5)">
        <line id="Line_37-4" data-name="Line 37" y2="494" transform="translate(522 586.5)" fill="none" stroke="rgba(51,54,59,0.3)" stroke-width="1"/>
      </g>
      <g transform="translate(-325.5 -586.5)">
        <line id="Line_37-5" data-name="Line 37" y2="494" transform="translate(522 586.5)" fill="none" stroke="rgba(51,54,59,0.3)" stroke-width="1"/>
      </g>
      <g transform="translate(-276.5 -586.5)">
        <line id="Line_37-6" data-name="Line 37" y2="494" transform="translate(522 586.5)" fill="none" stroke="rgba(51,54,59,0.3)" stroke-width="1"/>
      </g>
      <g transform="translate(-227.5 -586.5)">
        <line id="Line_37-7" data-name="Line 37" y2="494" transform="translate(522 586.5)" fill="none" stroke="rgba(51,54,59,0.3)" stroke-width="1"/>
      </g>
      <g transform="translate(-178.5 -586.5)">
        <line id="Line_37-8" data-name="Line 37" y2="494" transform="translate(522 586.5)" fill="none" stroke="rgba(51,54,59,0.3)" stroke-width="1"/>
      </g>
      <g transform="translate(-129.5 -586.5)">
        <line id="Line_37-9" data-name="Line 37" y2="494" transform="translate(522 586.5)" fill="none" stroke="rgba(51,54,59,0.3)" stroke-width="1"/>
      </g>
      <g transform="translate(-80.5 -586.5)">
        <line id="Line_37-10" data-name="Line 37" y2="494" transform="translate(522 586.5)" fill="none" stroke="rgba(51,54,59,0.3)" stroke-width="1"/>
      </g>
      <g transform="translate(-31.5 -586.5)">
        <line id="Line_37-11" data-name="Line 37" y2="494" transform="translate(522 586.5)" fill="none" stroke="rgba(51,54,59,0.3)" stroke-width="1"/>
      </g>
      <g transform="translate(17.5 -586.5)">
        <line id="Line_37-12" data-name="Line 37" y2="494" transform="translate(522 586.5)" fill="none" stroke="rgba(51,54,59,0.3)" stroke-width="1"/>
      </g>
      <g transform="translate(66.5 -586.5)">
        <line id="Line_37-13" data-name="Line 37" y2="494" transform="translate(522 586.5)" fill="none" stroke="rgba(51,54,59,0.3)" stroke-width="1"/>
      </g>
      <g transform="translate(115.5 -586.5)">
        <line id="Line_37-14" data-name="Line 37" y2="494" transform="translate(522 586.5)" fill="none" stroke="rgba(51,54,59,0.3)" stroke-width="1"/>
      </g>
      <g transform="translate(164.5 -586.5)">
        <line id="Line_37-15" data-name="Line 37" y2="494" transform="translate(522 586.5)" fill="none" stroke="rgba(51,54,59,0.3)" stroke-width="1"/>
      </g>
      <g transform="translate(213.5 -586.5)">
        <line id="Line_37-16" data-name="Line 37" y2="494" transform="translate(522 586.5)" fill="none" stroke="rgba(51,54,59,0.3)" stroke-width="1"/>
      </g>
      <g transform="translate(262.5 -586.5)">
        <line id="Line_37-17" data-name="Line 37" y2="494" transform="translate(522 586.5)" fill="none" stroke="rgba(51,54,59,0.3)" stroke-width="1"/>
      </g>
      <g transform="translate(311.5 -586.5)">
        <line id="Line_37-18" data-name="Line 37" y2="494" transform="translate(522 586.5)" fill="none" stroke="rgba(51,54,59,0.3)" stroke-width="1"/>
      </g>
      <g transform="translate(360.5 -586.5)">
        <line id="Line_37-19" data-name="Line 37" y2="494" transform="translate(522 586.5)" fill="none" stroke="rgba(51,54,59,0.3)" stroke-width="1"/>
      </g>
      <g transform="translate(409.5 -586.5)">
        <line id="Line_37-20" data-name="Line 37" y2="494" transform="translate(522 586.5)" fill="none" stroke="rgba(51,54,59,0.3)" stroke-width="1"/>
      </g>
      <g transform="translate(458.5 -586.5)">
        <line id="Line_37-21" data-name="Line 37" y2="494" transform="translate(522 586.5)" fill="none" stroke="rgba(51,54,59,0.3)" stroke-width="1"/>
      </g>
      <g transform="translate(507.5 -586.5)">
        <line id="Line_37-22" data-name="Line 37" y2="494" transform="translate(522 586.5)" fill="none" stroke="rgba(51,54,59,0.3)" stroke-width="1"/>
      </g>
      <g transform="translate(556.5 -586.5)">
        <line id="Line_37-23" data-name="Line 37" y2="494" transform="translate(522 586.5)" fill="none" stroke="rgba(51,54,59,0.3)" stroke-width="1"/>
      </g>
      <g transform="translate(605.5 -586.5)">
        <line id="Line_37-24" data-name="Line 37" y2="494" transform="translate(522 586.5)" fill="none" stroke="rgba(51,54,59,0.3)" stroke-width="1"/>
      </g>
      <g transform="translate(654.5 -586.5)">
        <line id="Line_37-25" data-name="Line 37" y2="494" transform="translate(522 586.5)" fill="none" stroke="rgba(51,54,59,0.3)" stroke-width="1"/>
      </g>
      <g transform="translate(703.5 -586.5)">
        <line id="Line_37-26" data-name="Line 37" y2="494" transform="translate(522 586.5)" fill="none" stroke="rgba(51,54,59,0.3)" stroke-width="1"/>
      </g>
      <g transform="translate(752.5 -586.5)">
        <line id="Line_37-27" data-name="Line 37" y2="494" transform="translate(522 586.5)" fill="none" stroke="rgba(51,54,59,0.3)" stroke-width="1"/>
      </g>
      <g transform="translate(801.5 -586.5)">
        <line id="Line_37-28" data-name="Line 37" y2="494" transform="translate(522 586.5)" fill="none" stroke="rgba(51,54,59,0.3)" stroke-width="1"/>
      </g>
      <g transform="translate(850.5 -586.5)">
        <line id="Line_37-29" data-name="Line 37" y2="494" transform="translate(522 586.5)" fill="none" stroke="rgba(51,54,59,0.3)" stroke-width="1"/>
      </g>
      <g transform="translate(899.5 -586.5)">
        <line id="Line_37-30" data-name="Line 37" y2="494" transform="translate(522 586.5)" fill="none" stroke="rgba(51,54,59,0.3)" stroke-width="1"/>
      </g>
      <g transform="translate(948.5 -586.5)">
        <line id="Line_37-31" data-name="Line 37" y2="494" transform="translate(522 586.5)" fill="none" stroke="rgba(51,54,59,0.3)" stroke-width="1"/>
      </g>
      <g transform="translate(997.5 -586.5)">
        <line id="Line_37-32" data-name="Line 37" y2="494" transform="translate(522 586.5)" fill="none" stroke="rgba(51,54,59,0.3)" stroke-width="1"/>
      </g>
      <g transform="translate(1046.5 -586.5)">
        <line id="Line_37-33" data-name="Line 37" y2="494" transform="translate(522 586.5)" fill="none" stroke="rgba(51,54,59,0.3)" stroke-width="1"/>
      </g>
      <g transform="translate(1095.5 -586.5)">
        <line id="Line_37-34" data-name="Line 37" y2="494" transform="translate(522 586.5)" fill="none" stroke="rgba(51,54,59,0.3)" stroke-width="1"/>
      </g>
      <g transform="translate(1144.5 -586.5)">
        <line id="Line_37-35" data-name="Line 37" y2="494" transform="translate(522 586.5)" fill="none" stroke="rgba(51,54,59,0.3)" stroke-width="1"/>
      </g>
      <g transform="translate(1193.5 -586.5)">
        <line id="Line_37-36" data-name="Line 37" y2="494" transform="translate(522 586.5)" fill="none" stroke="rgba(51,54,59,0.3)" stroke-width="1"/>
      </g>
      <g transform="translate(1242.5 -586.5)">
        <line id="Line_37-37" data-name="Line 37" y2="494" transform="translate(522 586.5)" fill="none" stroke="rgba(51,54,59,0.3)" stroke-width="1"/>
      </g>
      <g transform="translate(1291.5 -586.5)">
        <line id="Line_37-38" data-name="Line 37" y2="494" transform="translate(522 586.5)" fill="none" stroke="rgba(51,54,59,0.3)" stroke-width="1"/>
      </g>
      <g transform="translate(1340.5 -586.5)">
        <line id="Line_37-39" data-name="Line 37" y2="494" transform="translate(522 586.5)" fill="none" stroke="rgba(51,54,59,0.3)" stroke-width="1"/>
      </g>
      <g transform="translate(-521.5 -72.5)">
        <line id="Line_37-40" data-name="Line 37" y2="494" transform="translate(522 586.5)" fill="none" stroke="rgba(51,54,59,0.3)" stroke-width="1"/>
      </g>
      <g transform="translate(-472.5 -72.5)">
        <line id="Line_37-41" data-name="Line 37" y2="494" transform="translate(522 586.5)" fill="none" stroke="rgba(51,54,59,0.3)" stroke-width="1"/>
      </g>
      <g transform="translate(-423.5 -72.5)">
        <line id="Line_37-42" data-name="Line 37" y2="494" transform="translate(522 586.5)" fill="none" stroke="rgba(51,54,59,0.3)" stroke-width="1"/>
      </g>
      <g transform="translate(-374.5 -72.5)">
        <line id="Line_37-43" data-name="Line 37" y2="494" transform="translate(522 586.5)" fill="none" stroke="rgba(51,54,59,0.3)" stroke-width="1"/>
      </g>
      <g transform="translate(-325.5 -72.5)">
        <line id="Line_37-44" data-name="Line 37" y2="494" transform="translate(522 586.5)" fill="none" stroke="rgba(51,54,59,0.3)" stroke-width="1"/>
      </g>
      <g transform="translate(-276.5 -72.5)">
        <line id="Line_37-45" data-name="Line 37" y2="494" transform="translate(522 586.5)" fill="none" stroke="rgba(51,54,59,0.3)" stroke-width="1"/>
      </g>
      <g transform="translate(-227.5 -72.5)">
        <line id="Line_37-46" data-name="Line 37" y2="494" transform="translate(522 586.5)" fill="none" stroke="rgba(51,54,59,0.3)" stroke-width="1"/>
      </g>
      <g transform="translate(-178.5 -72.5)">
        <line id="Line_37-47" data-name="Line 37" y2="494" transform="translate(522 586.5)" fill="none" stroke="rgba(51,54,59,0.3)" stroke-width="1"/>
      </g>
      <g transform="translate(-129.5 -72.5)">
        <line id="Line_37-48" data-name="Line 37" y2="494" transform="translate(522 586.5)" fill="none" stroke="rgba(51,54,59,0.3)" stroke-width="1"/>
      </g>
      <g transform="translate(-80.5 -72.5)">
        <line id="Line_37-49" data-name="Line 37" y2="494" transform="translate(522 586.5)" fill="none" stroke="rgba(51,54,59,0.3)" stroke-width="1"/>
      </g>
      <g transform="translate(-31.5 -72.5)">
        <line id="Line_37-50" data-name="Line 37" y2="494" transform="translate(522 586.5)" fill="none" stroke="rgba(51,54,59,0.3)" stroke-width="1"/>
      </g>
      <g transform="translate(17.5 -72.5)">
        <line id="Line_37-51" data-name="Line 37" y2="494" transform="translate(522 586.5)" fill="none" stroke="rgba(51,54,59,0.3)" stroke-width="1"/>
      </g>
      <g transform="translate(66.5 -72.5)">
        <line id="Line_37-52" data-name="Line 37" y2="494" transform="translate(522 586.5)" fill="none" stroke="rgba(51,54,59,0.3)" stroke-width="1"/>
      </g>
      <g transform="translate(115.5 -72.5)">
        <line id="Line_37-53" data-name="Line 37" y2="494" transform="translate(522 586.5)" fill="none" stroke="rgba(51,54,59,0.3)" stroke-width="1"/>
      </g>
      <g transform="translate(164.5 -72.5)">
        <line id="Line_37-54" data-name="Line 37" y2="494" transform="translate(522 586.5)" fill="none" stroke="rgba(51,54,59,0.3)" stroke-width="1"/>
      </g>
      <g transform="translate(213.5 -72.5)">
        <line id="Line_37-55" data-name="Line 37" y2="494" transform="translate(522 586.5)" fill="none" stroke="rgba(51,54,59,0.3)" stroke-width="1"/>
      </g>
      <g transform="translate(262.5 -72.5)">
        <line id="Line_37-56" data-name="Line 37" y2="494" transform="translate(522 586.5)" fill="none" stroke="rgba(51,54,59,0.3)" stroke-width="1"/>
      </g>
      <g transform="translate(311.5 -72.5)">
        <line id="Line_37-57" data-name="Line 37" y2="494" transform="translate(522 586.5)" fill="none" stroke="rgba(51,54,59,0.3)" stroke-width="1"/>
      </g>
      <g transform="translate(360.5 -72.5)">
        <line id="Line_37-58" data-name="Line 37" y2="494" transform="translate(522 586.5)" fill="none" stroke="rgba(51,54,59,0.3)" stroke-width="1"/>
      </g>
      <g transform="translate(409.5 -72.5)">
        <line id="Line_37-59" data-name="Line 37" y2="494" transform="translate(522 586.5)" fill="none" stroke="rgba(51,54,59,0.3)" stroke-width="1"/>
      </g>
      <g transform="translate(458.5 -72.5)">
        <line id="Line_37-60" data-name="Line 37" y2="494" transform="translate(522 586.5)" fill="none" stroke="rgba(51,54,59,0.3)" stroke-width="1"/>
      </g>
      <g transform="translate(507.5 -72.5)">
        <line id="Line_37-61" data-name="Line 37" y2="494" transform="translate(522 586.5)" fill="none" stroke="rgba(51,54,59,0.3)" stroke-width="1"/>
      </g>
      <g transform="translate(556.5 -72.5)">
        <line id="Line_37-62" data-name="Line 37" y2="494" transform="translate(522 586.5)" fill="none" stroke="rgba(51,54,59,0.3)" stroke-width="1"/>
      </g>
      <g transform="translate(605.5 -72.5)">
        <line id="Line_37-63" data-name="Line 37" y2="494" transform="translate(522 586.5)" fill="none" stroke="rgba(51,54,59,0.3)" stroke-width="1"/>
      </g>
      <g transform="translate(654.5 -72.5)">
        <line id="Line_37-64" data-name="Line 37" y2="494" transform="translate(522 586.5)" fill="none" stroke="rgba(51,54,59,0.3)" stroke-width="1"/>
      </g>
      <g transform="translate(703.5 -72.5)">
        <line id="Line_37-65" data-name="Line 37" y2="494" transform="translate(522 586.5)" fill="none" stroke="rgba(51,54,59,0.3)" stroke-width="1"/>
      </g>
      <g transform="translate(752.5 -72.5)">
        <line id="Line_37-66" data-name="Line 37" y2="494" transform="translate(522 586.5)" fill="none" stroke="rgba(51,54,59,0.3)" stroke-width="1"/>
      </g>
      <g transform="translate(801.5 -72.5)">
        <line id="Line_37-67" data-name="Line 37" y2="494" transform="translate(522 586.5)" fill="none" stroke="rgba(51,54,59,0.3)" stroke-width="1"/>
      </g>
      <g transform="translate(850.5 -72.5)">
        <line id="Line_37-68" data-name="Line 37" y2="494" transform="translate(522 586.5)" fill="none" stroke="rgba(51,54,59,0.3)" stroke-width="1"/>
      </g>
      <g transform="translate(899.5 -72.5)">
        <line id="Line_37-69" data-name="Line 37" y2="494" transform="translate(522 586.5)" fill="none" stroke="rgba(51,54,59,0.3)" stroke-width="1"/>
      </g>
      <g transform="translate(948.5 -72.5)">
        <line id="Line_37-70" data-name="Line 37" y2="494" transform="translate(522 586.5)" fill="none" stroke="rgba(51,54,59,0.3)" stroke-width="1"/>
      </g>
      <g transform="translate(997.5 -72.5)">
        <line id="Line_37-71" data-name="Line 37" y2="494" transform="translate(522 586.5)" fill="none" stroke="rgba(51,54,59,0.3)" stroke-width="1"/>
      </g>
      <g transform="translate(1046.5 -72.5)">
        <line id="Line_37-72" data-name="Line 37" y2="494" transform="translate(522 586.5)" fill="none" stroke="rgba(51,54,59,0.3)" stroke-width="1"/>
      </g>
      <g transform="translate(1095.5 -72.5)">
        <line id="Line_37-73" data-name="Line 37" y2="494" transform="translate(522 586.5)" fill="none" stroke="rgba(51,54,59,0.3)" stroke-width="1"/>
      </g>
      <g transform="translate(1144.5 -72.5)">
        <line id="Line_37-74" data-name="Line 37" y2="494" transform="translate(522 586.5)" fill="none" stroke="rgba(51,54,59,0.3)" stroke-width="1"/>
      </g>
      <g transform="translate(1193.5 -72.5)">
        <line id="Line_37-75" data-name="Line 37" y2="494" transform="translate(522 586.5)" fill="none" stroke="rgba(51,54,59,0.3)" stroke-width="1"/>
      </g>
      <g transform="translate(1242.5 -72.5)">
        <line id="Line_37-76" data-name="Line 37" y2="494" transform="translate(522 586.5)" fill="none" stroke="rgba(51,54,59,0.3)" stroke-width="1"/>
      </g>
      <g transform="translate(1291.5 -72.5)">
        <line id="Line_37-77" data-name="Line 37" y2="494" transform="translate(522 586.5)" fill="none" stroke="rgba(51,54,59,0.3)" stroke-width="1"/>
      </g>
      <g transform="translate(1340.5 -72.5)">
        <line id="Line_37-78" data-name="Line 37" y2="494" transform="translate(522 586.5)" fill="none" stroke="rgba(51,54,59,0.3)" stroke-width="1"/>
      </g>
    </g>
    <g id="Repeat_Grid_2" data-name="Repeat Grid 2" transform="translate(464.5 614.88)" opacity="0.602" clip-path="url(#clip-path-2)">
      <g transform="translate(-476.5 -750)">
        <path id="Path_449" data-name="Path 449" d="M0,0H1444" transform="translate(476.5 750.5)" fill="none" stroke="rgba(51,54,59,0.3)" stroke-width="1"/>
      </g>
      <g transform="translate(987.5 -750)">
        <path id="Path_449-2" data-name="Path 449" d="M0,0H1444" transform="translate(476.5 750.5)" fill="none" stroke="rgba(51,54,59,0.3)" stroke-width="1"/>
      </g>
      <g transform="translate(-476.5 -699)">
        <path id="Path_449-3" data-name="Path 449" d="M0,0H1444" transform="translate(476.5 750.5)" fill="none" stroke="rgba(51,54,59,0.3)" stroke-width="1"/>
      </g>
      <g transform="translate(987.5 -699)">
        <path id="Path_449-4" data-name="Path 449" d="M0,0H1444" transform="translate(476.5 750.5)" fill="none" stroke="rgba(51,54,59,0.3)" stroke-width="1"/>
      </g>
      <g transform="translate(-476.5 -648)">
        <path id="Path_449-5" data-name="Path 449" d="M0,0H1444" transform="translate(476.5 750.5)" fill="none" stroke="rgba(51,54,59,0.3)" stroke-width="1"/>
      </g>
      <g transform="translate(987.5 -648)">
        <path id="Path_449-6" data-name="Path 449" d="M0,0H1444" transform="translate(476.5 750.5)" fill="none" stroke="rgba(51,54,59,0.3)" stroke-width="1"/>
      </g>
      <g transform="translate(-476.5 -597)">
        <path id="Path_449-7" data-name="Path 449" d="M0,0H1444" transform="translate(476.5 750.5)" fill="none" stroke="rgba(51,54,59,0.3)" stroke-width="1"/>
      </g>
      <g transform="translate(987.5 -597)">
        <path id="Path_449-8" data-name="Path 449" d="M0,0H1444" transform="translate(476.5 750.5)" fill="none" stroke="rgba(51,54,59,0.3)" stroke-width="1"/>
      </g>
      <g transform="translate(-476.5 -546)">
        <path id="Path_449-9" data-name="Path 449" d="M0,0H1444" transform="translate(476.5 750.5)" fill="none" stroke="rgba(51,54,59,0.3)" stroke-width="1"/>
      </g>
      <g transform="translate(987.5 -546)">
        <path id="Path_449-10" data-name="Path 449" d="M0,0H1444" transform="translate(476.5 750.5)" fill="none" stroke="rgba(51,54,59,0.3)" stroke-width="1"/>
      </g>
      <g transform="translate(-476.5 -495)">
        <path id="Path_449-11" data-name="Path 449" d="M0,0H1444" transform="translate(476.5 750.5)" fill="none" stroke="rgba(51,54,59,0.3)" stroke-width="1"/>
      </g>
      <g transform="translate(987.5 -495)">
        <path id="Path_449-12" data-name="Path 449" d="M0,0H1444" transform="translate(476.5 750.5)" fill="none" stroke="rgba(51,54,59,0.3)" stroke-width="1"/>
      </g>
      <g transform="translate(-476.5 -444)">
        <path id="Path_449-13" data-name="Path 449" d="M0,0H1444" transform="translate(476.5 750.5)" fill="none" stroke="rgba(51,54,59,0.3)" stroke-width="1"/>
      </g>
      <g transform="translate(987.5 -444)">
        <path id="Path_449-14" data-name="Path 449" d="M0,0H1444" transform="translate(476.5 750.5)" fill="none" stroke="rgba(51,54,59,0.3)" stroke-width="1"/>
      </g>
      <g transform="translate(-476.5 -393)">
        <path id="Path_449-15" data-name="Path 449" d="M0,0H1444" transform="translate(476.5 750.5)" fill="none" stroke="rgba(51,54,59,0.3)" stroke-width="1"/>
      </g>
      <g transform="translate(987.5 -393)">
        <path id="Path_449-16" data-name="Path 449" d="M0,0H1444" transform="translate(476.5 750.5)" fill="none" stroke="rgba(51,54,59,0.3)" stroke-width="1"/>
      </g>
      <g transform="translate(-476.5 -342)">
        <path id="Path_449-17" data-name="Path 449" d="M0,0H1444" transform="translate(476.5 750.5)" fill="none" stroke="rgba(51,54,59,0.3)" stroke-width="1"/>
      </g>
      <g transform="translate(987.5 -342)">
        <path id="Path_449-18" data-name="Path 449" d="M0,0H1444" transform="translate(476.5 750.5)" fill="none" stroke="rgba(51,54,59,0.3)" stroke-width="1"/>
      </g>
      <g transform="translate(-476.5 -291)">
        <path id="Path_449-19" data-name="Path 449" d="M0,0H1444" transform="translate(476.5 750.5)" fill="none" stroke="rgba(51,54,59,0.3)" stroke-width="1"/>
      </g>
      <g transform="translate(987.5 -291)">
        <path id="Path_449-20" data-name="Path 449" d="M0,0H1444" transform="translate(476.5 750.5)" fill="none" stroke="rgba(51,54,59,0.3)" stroke-width="1"/>
      </g>
      <g transform="translate(-476.5 -240)">
        <path id="Path_449-21" data-name="Path 449" d="M0,0H1444" transform="translate(476.5 750.5)" fill="none" stroke="rgba(51,54,59,0.3)" stroke-width="1"/>
      </g>
      <g transform="translate(987.5 -240)">
        <path id="Path_449-22" data-name="Path 449" d="M0,0H1444" transform="translate(476.5 750.5)" fill="none" stroke="rgba(51,54,59,0.3)" stroke-width="1"/>
      </g>
      <g transform="translate(-476.5 -189)">
        <path id="Path_449-23" data-name="Path 449" d="M0,0H1444" transform="translate(476.5 750.5)" fill="none" stroke="rgba(51,54,59,0.3)" stroke-width="1"/>
      </g>
      <g transform="translate(987.5 -189)">
        <path id="Path_449-24" data-name="Path 449" d="M0,0H1444" transform="translate(476.5 750.5)" fill="none" stroke="rgba(51,54,59,0.3)" stroke-width="1"/>
      </g>
      <g transform="translate(-476.5 -138)">
        <path id="Path_449-25" data-name="Path 449" d="M0,0H1444" transform="translate(476.5 750.5)" fill="none" stroke="rgba(51,54,59,0.3)" stroke-width="1"/>
      </g>
      <g transform="translate(987.5 -138)">
        <path id="Path_449-26" data-name="Path 449" d="M0,0H1444" transform="translate(476.5 750.5)" fill="none" stroke="rgba(51,54,59,0.3)" stroke-width="1"/>
      </g>
      <g transform="translate(-476.5 -87)">
        <path id="Path_449-27" data-name="Path 449" d="M0,0H1444" transform="translate(476.5 750.5)" fill="none" stroke="rgba(51,54,59,0.3)" stroke-width="1"/>
      </g>
      <g transform="translate(987.5 -87)">
        <path id="Path_449-28" data-name="Path 449" d="M0,0H1444" transform="translate(476.5 750.5)" fill="none" stroke="rgba(51,54,59,0.3)" stroke-width="1"/>
      </g>
      <g transform="translate(-476.5 -36)">
        <path id="Path_449-29" data-name="Path 449" d="M0,0H1444" transform="translate(476.5 750.5)" fill="none" stroke="rgba(51,54,59,0.3)" stroke-width="1"/>
      </g>
      <g transform="translate(987.5 -36)">
        <path id="Path_449-30" data-name="Path 449" d="M0,0H1444" transform="translate(476.5 750.5)" fill="none" stroke="rgba(51,54,59,0.3)" stroke-width="1"/>
      </g>
      <g transform="translate(-476.5 15)">
        <path id="Path_449-31" data-name="Path 449" d="M0,0H1444" transform="translate(476.5 750.5)" fill="none" stroke="rgba(51,54,59,0.3)" stroke-width="1"/>
      </g>
      <g transform="translate(987.5 15)">
        <path id="Path_449-32" data-name="Path 449" d="M0,0H1444" transform="translate(476.5 750.5)" fill="none" stroke="rgba(51,54,59,0.3)" stroke-width="1"/>
      </g>
      <g transform="translate(-476.5 66)">
        <path id="Path_449-33" data-name="Path 449" d="M0,0H1444" transform="translate(476.5 750.5)" fill="none" stroke="rgba(51,54,59,0.3)" stroke-width="1"/>
      </g>
      <g transform="translate(987.5 66)">
        <path id="Path_449-34" data-name="Path 449" d="M0,0H1444" transform="translate(476.5 750.5)" fill="none" stroke="rgba(51,54,59,0.3)" stroke-width="1"/>
      </g>
      <g transform="translate(-476.5 117)">
        <path id="Path_449-35" data-name="Path 449" d="M0,0H1444" transform="translate(476.5 750.5)" fill="none" stroke="rgba(51,54,59,0.3)" stroke-width="1"/>
      </g>
      <g transform="translate(987.5 117)">
        <path id="Path_449-36" data-name="Path 449" d="M0,0H1444" transform="translate(476.5 750.5)" fill="none" stroke="rgba(51,54,59,0.3)" stroke-width="1"/>
      </g>
      <g transform="translate(-476.5 168)">
        <path id="Path_449-37" data-name="Path 449" d="M0,0H1444" transform="translate(476.5 750.5)" fill="none" stroke="rgba(51,54,59,0.3)" stroke-width="1"/>
      </g>
      <g transform="translate(987.5 168)">
        <path id="Path_449-38" data-name="Path 449" d="M0,0H1444" transform="translate(476.5 750.5)" fill="none" stroke="rgba(51,54,59,0.3)" stroke-width="1"/>
      </g>
    </g>
  </g>
</svg>
