<svg xmlns="http://www.w3.org/2000/svg" width="717.943" height="667.951" viewBox="0 0 717.943 667.951">
  <g id="Group_75" data-name="Group 75" transform="translate(-332.822 -688.713)">
    <path id="Path_266" data-name="Path 266" d="M552.5,920.065V876.173a7.989,7.989,0,0,0-7.991-7.989H398.993" transform="translate(73.018 200.938)" fill="none" stroke="#000" stroke-linecap="round" stroke-linejoin="round" stroke-width="3"/>
    <g id="Group_61" data-name="Group 61" transform="translate(418.943 1088.744)">
      <path id="Path_267" data-name="Path 267" d="M445.1,888c4.331-3.027,8.6-5.942,10.931-7.333,5.949-3.553,12.411-1.226,12.411-1.226l42.612,26.211,44.582-11.11,11.3,77.609-41.3,10.1-4.6.992" transform="translate(-293.86 -875.945)" fill="#fff" stroke="#000" stroke-miterlimit="10" stroke-width="2"/>
      <g id="Group_59" data-name="Group 59" transform="translate(36.729 6.319)">
        <g id="Group_58" data-name="Group 58">
          <g id="Group_56" data-name="Group 56">
            <path id="Path_268" data-name="Path 268" d="M502.033,918.187a9.218,9.218,0,0,1,2.619,12.762l-3.019,4.586a9.217,9.217,0,0,1-12.76,2.621l-18.826-12.419,14.282-18.807Z" transform="translate(-302.426 -850.377)" fill="#fff"/>
            <path id="Path_269" data-name="Path 269" d="M497.718,929.637a9.2,9.2,0,0,1,2.619,12.747l-2.408,3.645a9.191,9.191,0,0,1-12.749,2.621l-3.632-2.4L463.426,934.3,477.5,915.781Z" transform="translate(-309.901 -840.383)" fill="#fff"/>
            <path id="Path_270" data-name="Path 270" d="M485.355,906.93l-14.281,18.806-1.91-1.258-.025-.026Z" transform="translate(-303.452 -850.377)" fill="#fff"/>
            <path id="Path_271" data-name="Path 271" d="M573.223,936.921l-16.218,17.523-45.4,49.07-1.522.692L438.17,977.434l-46.851-12.56,14.836-75.526,45.3,13.237,39.593-20.567s3.59-4.918,11.676,2.231,18.213,19.984,18.213,19.984Z" transform="translate(-391.319 -880.368)" fill="#fff"/>
            <path id="Path_272" data-name="Path 272" d="M487.79,936.433a9.213,9.213,0,0,1,2.583,12.724l-2.408,3.643a9.2,9.2,0,0,1-12.749,2.621L457.9,944.008l11.772-19.53Z" transform="translate(-316.144 -830.563)" fill="#fff"/>
            <path id="Path_273" data-name="Path 273" d="M471.06,916.43l-.026.038-1.884-1.3Z" transform="translate(-303.439 -841.07)" fill="#fff"/>
            <path id="Path_274" data-name="Path 274" d="M493.24,915.186l1.884,1.3L481.054,935l-11.772,19.53-21.468,9.7,45.4-49.07Z" transform="translate(-327.529 -841.084)" fill="#fff"/>
            <path id="Path_275" data-name="Path 275" d="M476.956,938.51a9.205,9.205,0,0,1,2.621,12.749l-1.456,2.212a9.2,9.2,0,0,1-12.749,2.621L447.1,944.043l.658.245.864-.937,21.468-9.7Z" transform="translate(-328.337 -820.206)" fill="#fff"/>
            <path id="Path_276" data-name="Path 276" d="M448.621,938.208l-.865.937-.658-.245Z" transform="translate(-328.337 -815.061)" fill="#fff"/>
          </g>
          <g id="Group_57" data-name="Group 57">
            <path id="Path_277" data-name="Path 277" d="M510.081,1004.206,438.17,977.434l-46.851-12.56,14.836-75.526,45.3,13.237,39.593-20.567s3.59-4.918,11.676,2.231,18.213,19.984,18.213,19.984l52.283,32.688" transform="translate(-391.319 -880.368)" fill="none" stroke="#000" stroke-miterlimit="10" stroke-width="2"/>
            <path id="Path_278" data-name="Path 278" d="M487.79,930.093a9.213,9.213,0,0,1,2.583,12.724l-2.408,3.643a9.2,9.2,0,0,1-12.749,2.621L457.9,937.668" transform="translate(-316.144 -824.223)" fill="none" stroke="#000" stroke-miterlimit="10" stroke-width="2"/>
            <path id="Path_279" data-name="Path 279" d="M470.089,933.651l6.866,4.859a9.205,9.205,0,0,1,2.621,12.749l-1.456,2.212a9.2,9.2,0,0,1-12.749,2.621L447.1,944.043" transform="translate(-328.337 -820.206)" fill="none" stroke="#000" stroke-miterlimit="10" stroke-width="2"/>
            <path id="Path_280" data-name="Path 280" d="M491.805,906.93l17.7,11.257a9.218,9.218,0,0,1,2.619,12.762l-3.019,4.586a9.217,9.217,0,0,1-12.76,2.621l-18.826-12.419-1.91-1.258,1.884,1.3,20.22,13.856a9.2,9.2,0,0,1,2.619,12.747l-2.408,3.645a9.191,9.191,0,0,1-12.749,2.621l-3.632-2.4-18.121-11.955" transform="translate(-309.901 -850.377)" fill="none" stroke="#000" stroke-miterlimit="10" stroke-width="2"/>
          </g>
        </g>
      </g>
      <g id="Group_60" data-name="Group 60" transform="translate(76.869 93.166)">
        <path id="Rectangle_330" data-name="Rectangle 330" d="M4.652,0H15.158A4.652,4.652,0,0,1,19.81,4.652v16.83a2.137,2.137,0,0,1-2.137,2.137H1.918A1.918,1.918,0,0,1,0,21.7V4.652A4.652,4.652,0,0,1,4.652,0Z" transform="translate(12.998 0.849) rotate(33.39)" fill="#fff" stroke="#000" stroke-miterlimit="10" stroke-width="2"/>
        <path id="Rectangle_331" data-name="Rectangle 331" d="M5.348,0H17.426a5.348,5.348,0,0,1,5.348,5.348V35.021a1.817,1.817,0,0,1-1.817,1.817H1.63A1.63,1.63,0,0,1,0,35.208V5.348A5.348,5.348,0,0,1,5.348,0Z" transform="translate(37.395 0) rotate(33.39)" fill="#fff" stroke="#000" stroke-miterlimit="10" stroke-width="2"/>
        <path id="Rectangle_332" data-name="Rectangle 332" d="M5.348,0H17.426a5.348,5.348,0,0,1,5.348,5.348V43.412a1.817,1.817,0,0,1-1.817,1.817H1.63A1.63,1.63,0,0,1,0,43.6V5.348A5.348,5.348,0,0,1,5.348,0Z" transform="translate(61.516 5.189) rotate(33.39)" fill="#fff" stroke="#000" stroke-miterlimit="10" stroke-width="2"/>
        <path id="Rectangle_333" data-name="Rectangle 333" d="M5.348,0H17.426a5.348,5.348,0,0,1,5.348,5.348V38.862a1.817,1.817,0,0,1-1.817,1.817H1.63A1.63,1.63,0,0,1,0,39.049V5.348A5.348,5.348,0,0,1,5.348,0Z" transform="translate(78.078 21.497) rotate(33.39)" fill="#fff" stroke="#000" stroke-miterlimit="10" stroke-width="2"/>
      </g>
      <path id="Path_281" data-name="Path 281" d="M474.693,901.916l-6.349,4.552a12.2,12.2,0,0,0-4.69,6.82l-3.611,13.786a12.2,12.2,0,0,1-8.218,8.568l-1,.307a12.2,12.2,0,0,1-11.357-2.261h0a12.2,12.2,0,0,1-4.013-12.519l6.43-24.289a12.2,12.2,0,0,1,4.68-6.79c2.617-1.878,6.345-4.537,10.026-7.113" transform="translate(-305.219 -871.106)" fill="#fff" stroke="#000" stroke-miterlimit="10" stroke-width="2"/>
      <rect id="Rectangle_334" data-name="Rectangle 334" width="47.556" height="92.712" rx="5.942" transform="matrix(0.96, 0.28, -0.28, 0.96, 25.981, 0)" fill="#fff" stroke="#000" stroke-miterlimit="10" stroke-width="3"/>
      <rect id="Rectangle_335" data-name="Rectangle 335" width="47.556" height="92.712" rx="5.942" transform="translate(314.776 91.09) rotate(163.654)" fill="#fff" stroke="#000" stroke-miterlimit="10" stroke-width="3"/>
      <path id="Path_282" data-name="Path 282" d="M445.079,885.4l3.558-2.391,14.546,16.563-3.322,2.39Z" transform="translate(-293.889 -871.064)" fill="#fff"/>
    </g>
    <g id="Group_62" data-name="Group 62" transform="translate(334.325 690.225)">
      <path id="Path_283" data-name="Path 283" d="M591.085,936.011V911.564s12.713-4.4,8.8-17.114A46.364,46.364,0,0,0,621.4,853.869c-.49-28.358-15.153-37.158-15.153-37.158s15.643-22-3.426-45.472c0,0-12.713-11.734-21.513-11.246,0,0,2.932-24.609-22.492-40.907s-45.469-8.474-45.469-8.474-15.157-23.469-46.939-20.048-46.936,24.446-46.936,24.446-36.67-8.312-47.916,30.314c0,0-39.114,16.624-37.16,53.294s31.292,47.916,31.292,47.916,12.223,7.333,30.8,4.888c0,0,6.845,33.736,39.6,33.736h66.495l35.205,24.08h19.068l13.688,9.656,7.335,17.114Z" transform="translate(-334.325 -690.225)" fill="#fff" stroke="#000" stroke-linecap="round" stroke-linejoin="round" stroke-width="3"/>
      <path id="Path_284" data-name="Path 284" d="M438.365,742.591s1.467-24.447-15.157-35.2-33.736,0-33.736,0" transform="translate(-272.057 -676.243)" fill="none" stroke="#000" stroke-linecap="round" stroke-linejoin="round" stroke-width="3"/>
      <path id="Path_285" data-name="Path 285" d="M410.655,722.309s-28.848-8.8-40.581,13.2c0,0-7.335,12.223,0,30.8" transform="translate(-297.641 -655.962)" fill="none" stroke="#000" stroke-linecap="round" stroke-linejoin="round" stroke-width="3"/>
      <path id="Path_286" data-name="Path 286" d="M362.593,728.506s-21.677,11.734-14.342,33.736,27.378,20.046,27.378,20.046" transform="translate(-320.311 -647.001)" fill="none" stroke="#000" stroke-linecap="round" stroke-linejoin="round" stroke-width="3"/>
      <path id="Path_287" data-name="Path 287" d="M421.456,720.57s8.3,21.3-7.839,34.009-30.8,2.444-30.8,2.444" transform="translate(-279.577 -655.962)" fill="none" stroke="#000" stroke-linecap="round" stroke-linejoin="round" stroke-width="3"/>
      <path id="Path_288" data-name="Path 288" d="M470.679,750.949s-4.891-25.913-29.825-25.426-29.337,25.426-29.337,25.426" transform="translate(-247.165 -650.376)" fill="none" stroke="#000" stroke-linecap="round" stroke-linejoin="round" stroke-width="3"/>
      <path id="Path_289" data-name="Path 289" d="M443.6,731.353s19.175-2.508,19.175,20.938c0,0-2.167,16.6-19.175,17.58s-51.148,0-51.148,0-28.931-.977-28.931,35.2" transform="translate(-301.357 -643.874)" fill="none" stroke="#000" stroke-linecap="round" stroke-linejoin="round" stroke-width="3"/>
      <path id="Path_290" data-name="Path 290" d="M473.189,758.359s12.711,16.135-6.845,35.2c0,0-10.756,9.779-29.337,0" transform="translate(-218.384 -613.293)" fill="none" stroke="#000" stroke-linecap="round" stroke-linejoin="round" stroke-width="3"/>
      <path id="Path_291" data-name="Path 291" d="M466.889,723.15s-24.813-3.688-31.23,15.025" transform="translate(-219.906 -653.381)" fill="none" stroke="#000" stroke-linecap="round" stroke-linejoin="round" stroke-width="3"/>
      <path id="Path_292" data-name="Path 292" d="M374.316,701.867s14.667.109,18.089,21.568" transform="translate(-289.17 -677.08)" fill="none" stroke="#000" stroke-linecap="round" stroke-linejoin="round" stroke-width="3"/>
      <path id="Path_293" data-name="Path 293" d="M396.129,731.121s-14.005-20.729-44.318-14.374" transform="translate(-314.581 -661.646)" fill="none" stroke="#000" stroke-linecap="round" stroke-linejoin="round" stroke-width="3"/>
      <path id="Path_294" data-name="Path 294" d="M444.765,800.563s29.09-56.445-33.248-62.068" transform="translate(-247.165 -635.722)" fill="none" stroke="#000" stroke-linecap="round" stroke-linejoin="round" stroke-width="3"/>
      <path id="Path_295" data-name="Path 295" d="M473.928,793.536l-24.207-29.895H379.444" transform="translate(-283.379 -607.33)" fill="none" stroke="#000" stroke-linecap="round" stroke-linejoin="round" stroke-width="3"/>
      <path id="Path_296" data-name="Path 296" d="M413.354,781.782s61.676,35.018,97.3,9.289c0,0,4.588,8.638-8.8,17.114v24.447h-13.2l-7.335-17.114-13.688-9.656H448.559Z" transform="translate(-245.091 -586.846)" stroke="#000" stroke-linecap="round" stroke-linejoin="round" stroke-width="3"/>
    </g>
    <path id="Path_297" data-name="Path 297" d="M451.342,823.867V933.7c0,10.271,4.084,18.6,9.123,18.6H499.39c5.04,0,9.123-8.327,9.123-18.6V781.172c0-10.271,4.086-18.6,9.123-18.6H549.1" transform="translate(132.127 81.691)" fill="none" stroke="#000" stroke-linecap="round" stroke-linejoin="round" stroke-width="3"/>
    <g id="Group_63" data-name="Group 63" transform="translate(681.224 827.83)">
      <path id="Rectangle_336" data-name="Rectangle 336" d="M0,0H23.293a6.815,6.815,0,0,1,6.815,6.815V26.057a6.815,6.815,0,0,1-6.815,6.815H0a0,0,0,0,1,0,0V0A0,0,0,0,1,0,0Z" transform="translate(30.108 32.872) rotate(180)" fill="#fff" stroke="#000" stroke-linecap="round" stroke-linejoin="round" stroke-width="3"/>
      <line id="Line_140" data-name="Line 140" x2="22.469" transform="translate(30.108 6.871)" fill="none" stroke="#000" stroke-linecap="round" stroke-linejoin="round" stroke-width="1"/>
      <line id="Line_141" data-name="Line 141" x2="22.469" transform="translate(30.108 24.628)" fill="none" stroke="#000" stroke-linecap="round" stroke-linejoin="round" stroke-width="1"/>
    </g>
    <path id="Path_301" data-name="Path 301" d="M720.641,884.976H605.085l26-.006a9.435,9.435,0,0,0,7.471-8.619l.162-61.838a9.067,9.067,0,0,1,9.068-9.044H694.91" transform="translate(305.721 130.123)" fill="none" stroke="#000" stroke-linecap="round" stroke-linejoin="round" stroke-width="3"/>
    <circle id="Ellipse_142" data-name="Ellipse 142" cx="10.872" cy="10.872" r="10.872" transform="translate(1027.494 1004.227)" fill="#c9b61f"/>
    <circle id="Ellipse_143" data-name="Ellipse 143" cx="10.872" cy="10.872" r="10.872" transform="translate(1001.628 924.719)" fill="#c9b61f"/>
    <path id="Path_306" data-name="Path 306" d="M605.486,905.674v-153.5c0-11.723-10.377-21.225-23.177-21.225h-99.79" transform="translate(166.105 45.981)" fill="none" stroke="#000" stroke-linecap="round" stroke-linejoin="round" stroke-width="3"/>
    <path id="Path_307" data-name="Path 307" d="M539.853,943.261V724.892c0-16.675,14.761-30.193,32.971-30.193H714.784" transform="translate(232.066 5.052)" fill="none" stroke="#000" stroke-linecap="round" stroke-linejoin="round" stroke-width="3"/>
    <circle id="Ellipse_170" data-name="Ellipse 170" cx="10.872" cy="10.872" r="10.872" transform="translate(750.579 1334.92)" fill="#c9b61f"/>
    <circle id="Ellipse_171" data-name="Ellipse 171" cx="10.872" cy="10.872" r="10.872" transform="translate(674.523 1273.147)" fill="#c9b61f"/>
    <circle id="Ellipse_178" data-name="Ellipse 178" cx="10.872" cy="10.872" r="10.872" transform="translate(461.57 1057.746)" fill="#c9b61f"/>
    <circle id="Ellipse_179" data-name="Ellipse 179" cx="10.872" cy="10.872" r="10.872" transform="translate(646.374 766.465)" fill="#c9b61f"/>
    <circle id="Ellipse_180" data-name="Ellipse 180" cx="10.872" cy="10.872" r="10.872" transform="translate(936.432 690.585)" fill="#c9b61f"/>
    <path id="Path_363" data-name="Path 363" d="M569.505,908.18v129.741H504.321" transform="translate(191.946 246.098)" fill="none" stroke="#000" stroke-linecap="round" stroke-linejoin="round" stroke-width="3"/>
    <line id="Line_152" data-name="Line 152" y2="191.405" transform="translate(761.451 1143.515)" fill="none" stroke="#000" stroke-linecap="round" stroke-linejoin="round" stroke-width="3"/>
    <g id="Group_71" data-name="Group 71" transform="translate(816.035 720.95)">
      <rect id="Rectangle_357" data-name="Rectangle 357" width="58.623" height="34.841" transform="translate(43.35 192.853)" stroke-width="3" stroke="#000" stroke-linecap="round" stroke-linejoin="round" fill="none"/>
      <path id="Path_373" data-name="Path 373" d="M627.085,827.414H594.55L580.933,811.6h58.623Z" transform="translate(-537.584 -583.905)" fill="none" stroke="#000" stroke-linecap="round" stroke-linejoin="round" stroke-width="3"/>
      <path id="Path_374" data-name="Path 374" d="M662.545,897.508c0-53.635,26.056-73.135,26.056-73.135a72.66,72.66,0,1,0-111.751-1.22l1.016,1.22s26.056,19.5,26.056,73.135" transform="translate(-560.573 -704.656)" fill="none" stroke="#000" stroke-linecap="round" stroke-linejoin="round" stroke-width="3"/>
      <path id="Path_375" data-name="Path 375" d="M596.463,834.376V813.289l11.919-11.919H591.42l17.191-17.191H591.42l10.2-10.2V760.569" transform="translate(-525.743 -641.524)" fill="none" stroke="#000" stroke-linecap="round" stroke-linejoin="round" stroke-width="1"/>
      <path id="Path_376" data-name="Path 376" d="M632.222,771.98" transform="translate(-479.673 -628.639)" fill="none" stroke="#000" stroke-linecap="round" stroke-linejoin="round" stroke-width="3"/>
      <path id="Path_391" data-name="Path 391" d="M12.378,0A12.378,12.378,0,1,1,0,12.378,12.378,12.378,0,0,1,12.378,0Z" transform="translate(63.843 93.946)" fill="#008a9e" stroke="#000" stroke-linecap="round" stroke-width="2"/>
    </g>
    <path id="Path_377" data-name="Path 377" d="M481.723,856.672a40.227,40.227,0,0,1,40.228-40.225" transform="translate(166.43 142.52)" fill="none" stroke="#000" stroke-linecap="round" stroke-linejoin="round" stroke-width="5"/>
    <g id="Group_73" data-name="Group 73" transform="translate(834.927 1057.722)">
      <g id="Group_72" data-name="Group 72">
        <path id="Path_378" data-name="Path 378" d="M580.721,906.4s-25.368,22.833,0,46.387" transform="translate(-569.447 -813.63)" fill="none" stroke="#000" stroke-linecap="round" stroke-linejoin="round" stroke-width="3"/>
        <path id="Path_379" data-name="Path 379" d="M581.457,909.217c-25.369-23.557,0-46.387,0-46.387H732.429" transform="translate(-568.616 -862.83)" fill="#fff" stroke="#000" stroke-linecap="round" stroke-linejoin="round" stroke-width="3"/>
        <path id="Path_380" data-name="Path 380" d="M782.953,931h-201.5c-25.369-23.557,0-46.387,0-46.387H754.687" transform="translate(-568.616 -838.23)" fill="#fff" stroke="#000" stroke-linecap="round" stroke-linejoin="round" stroke-width="3"/>
        <path id="Path_381" data-name="Path 381" d="M783.784,974.749H580.721c-25.368-23.557,0-46.387,0-46.387H783.784" transform="translate(-569.447 -788.837)" fill="#fff" stroke="#000" stroke-linecap="round" stroke-linejoin="round" stroke-width="3"/>
        <path id="Path_382" data-name="Path 382" d="M649.155,862.83s-25.366,22.83,0,46.387" transform="translate(-492.176 -862.83)" fill="#fff" stroke="#000" stroke-linecap="round" stroke-linejoin="round" stroke-width="2"/>
        <path id="Path_383" data-name="Path 383" d="M659.66,884.617s-25.369,22.831,0,46.387" transform="translate(-480.315 -838.23)" fill="#fff" stroke="#000" stroke-linecap="round" stroke-linejoin="round" stroke-width="2"/>
        <path id="Path_384" data-name="Path 384" d="M672.639,906.4s-25.369,22.833,0,46.387" transform="translate(-465.66 -813.63)" fill="#fff" stroke="#000" stroke-linecap="round" stroke-linejoin="round" stroke-width="2"/>
        <path id="Path_385" data-name="Path 385" d="M672.639,928.362s-25.369,22.831,0,46.387" transform="translate(-465.66 -788.837)" fill="#fff" stroke="#000" stroke-linecap="round" stroke-linejoin="round" stroke-width="2"/>
      </g>
      <line id="Line_156" data-name="Line 156" x2="115.525" transform="translate(21.691 33.767)" fill="none" stroke="#000" stroke-linecap="round" stroke-linejoin="round" stroke-width="0.5"/>
      <line id="Line_157" data-name="Line 157" x2="115.525" transform="translate(21.691 23.193)" fill="none" stroke="#000" stroke-linecap="round" stroke-linejoin="round" stroke-width="0.5"/>
      <line id="Line_158" data-name="Line 158" x2="115.525" transform="translate(21.691 12.62)" fill="none" stroke="#000" stroke-linecap="round" stroke-linejoin="round" stroke-width="0.5"/>
      <line id="Line_159" data-name="Line 159" x2="140.884" transform="translate(17.894 80.155)" fill="none" stroke="#000" stroke-linecap="round" stroke-linejoin="round" stroke-width="0.5"/>
      <line id="Line_160" data-name="Line 160" x2="134.213" transform="translate(17.894 69.581)" fill="none" stroke="#000" stroke-linecap="round" stroke-linejoin="round" stroke-width="0.5"/>
      <line id="Line_161" data-name="Line 161" x2="140.884" transform="translate(17.894 59.007)" fill="none" stroke="#000" stroke-linecap="round" stroke-linejoin="round" stroke-width="0.5"/>
      <line id="Line_162" data-name="Line 162" x2="166.071" transform="translate(17.894 126.542)" fill="none" stroke="#000" stroke-linecap="round" stroke-linejoin="round" stroke-width="0.5"/>
      <line id="Line_163" data-name="Line 163" x2="158.207" transform="translate(17.894 115.969)" fill="none" stroke="#000" stroke-linecap="round" stroke-linejoin="round" stroke-width="0.5"/>
      <line id="Line_164" data-name="Line 164" x2="166.071" transform="translate(17.894 105.395)" fill="none" stroke="#000" stroke-linecap="round" stroke-linejoin="round" stroke-width="0.5"/>
      <line id="Line_165" data-name="Line 165" x2="166.071" transform="translate(17.894 174.289)" fill="none" stroke="#000" stroke-linecap="round" stroke-linejoin="round" stroke-width="0.5"/>
      <line id="Line_166" data-name="Line 166" x2="158.207" transform="translate(17.894 163.716)" fill="none" stroke="#000" stroke-linecap="round" stroke-linejoin="round" stroke-width="0.5"/>
      <line id="Line_167" data-name="Line 167" x2="166.071" transform="translate(17.894 153.142)" fill="none" stroke="#000" stroke-linecap="round" stroke-linejoin="round" stroke-width="0.5"/>
    </g>
    <path id="Path_386" data-name="Path 386" d="M613.622,1088.835C591.5,1034.924,511.328,963.04,481.608,930.556S456.725,809.6,524.46,801.306s89.161,40.779,89.161,40.779,21.428-49.072,89.161-40.779,72.575,96.764,42.853,129.25S635.739,1034.924,613.622,1088.835Z" transform="translate(146.696 124.358)" fill="#005d6b" stroke="#000" stroke-miterlimit="10" stroke-width="4"/>
  </g>
</svg>
