<svg xmlns="http://www.w3.org/2000/svg" width="29" height="28" viewBox="0 0 29 28">
  <g id="Group_102" data-name="Group 102" transform="translate(-2309 -358)">
    <rect id="Rectangle_238" data-name="Rectangle 238" width="29" height="28" rx="3" transform="translate(2309 358)" fill="#3c841b"/>
    <path id="Icon_awesome-plus" data-name="Icon awesome-plus" d="M15.433,8.779H10.091V3.437A1.187,1.187,0,0,0,8.9,2.25H7.716A1.187,1.187,0,0,0,6.529,3.437V8.779H1.187A1.187,1.187,0,0,0,0,9.966v1.187a1.187,1.187,0,0,0,1.187,1.187H6.529v5.342A1.187,1.187,0,0,0,7.716,18.87H8.9a1.187,1.187,0,0,0,1.187-1.187V12.341h5.342a1.187,1.187,0,0,0,1.187-1.187V9.966A1.187,1.187,0,0,0,15.433,8.779Z" transform="translate(2315.47 361.619)" fill="#fff"/>
  </g>
</svg>
