<svg xmlns="http://www.w3.org/2000/svg" width="29" height="28" viewBox="0 0 29 28">
  <g id="Group_107" data-name="Group 107" transform="translate(-2393 -515)">
    <rect id="Rectangle_239" data-name="Rectangle 239" width="29" height="28" rx="3" transform="translate(2393 515)" fill="#3c841b"/>
    <path id="Icon_awesome-eye" data-name="Icon awesome-eye" d="M16.781,9.7a9.4,9.4,0,0,0-8.34-5.2A9.4,9.4,0,0,0,.1,9.7a.948.948,0,0,0,0,.856,9.4,9.4,0,0,0,8.34,5.2,9.4,9.4,0,0,0,8.34-5.2A.948.948,0,0,0,16.781,9.7Zm-8.34,4.649a4.221,4.221,0,1,1,4.221-4.221A4.221,4.221,0,0,1,8.442,14.348Zm0-7.035a2.794,2.794,0,0,0-.742.111A1.4,1.4,0,0,1,5.739,9.386a2.807,2.807,0,1,0,2.7-2.072Z" transform="translate(2398.659 519.281)" fill="#fff"/>
    <line id="Line_68" data-name="Line 68" y1="14" x2="14" transform="translate(2400.5 522.5)" fill="none" stroke="#fff" stroke-linecap="round" stroke-width="2"/>
  </g>
</svg>
