<svg xmlns="http://www.w3.org/2000/svg" width="29" height="28" viewBox="0 0 29 28">
  <g id="Group_106" data-name="Group 106" transform="translate(-2309 -515)">
    <rect id="Rectangle_234" data-name="Rectangle 234" width="29" height="28" rx="3" transform="translate(2309 515)" fill="#3c841b"/>
    <path id="Icon_awesome-eye" data-name="Icon awesome-eye" d="M16.781,9.7a9.4,9.4,0,0,0-8.34-5.2A9.4,9.4,0,0,0,.1,9.7a.948.948,0,0,0,0,.856,9.4,9.4,0,0,0,8.34,5.2,9.4,9.4,0,0,0,8.34-5.2A.948.948,0,0,0,16.781,9.7Zm-8.34,4.649a4.221,4.221,0,1,1,4.221-4.221A4.221,4.221,0,0,1,8.442,14.348Zm0-7.035a2.794,2.794,0,0,0-.742.111A1.4,1.4,0,0,1,5.739,9.386a2.807,2.807,0,1,0,2.7-2.072Z" transform="translate(2314.659 519.281)" fill="#fff"/>
  </g>
</svg>
