<svg xmlns="http://www.w3.org/2000/svg" width="20" height="19" viewBox="0 0 20 19">
  <g id="Group_6" data-name="Group 6" transform="translate(-7563 270)">
    <path id="Icon_awesome-plus" data-name="Icon awesome-plus" d="M10.544,6.711H6.894V3.061a.811.811,0,0,0-.811-.811H5.272a.811.811,0,0,0-.811.811v3.65H.811A.811.811,0,0,0,0,7.522v.811a.811.811,0,0,0,.811.811h3.65v3.65a.811.811,0,0,0,.811.811h.811a.811.811,0,0,0,.811-.811V9.144h3.65a.811.811,0,0,0,.811-.811V7.522A.811.811,0,0,0,10.544,6.711Z" transform="translate(7567.64 -268.381)" fill="#fff"/>
    <g id="Rectangle_97" data-name="Rectangle 97" transform="translate(7563 -270)" fill="none" stroke="#fff" stroke-width="1">
      <rect width="20" height="19" rx="6" stroke="none"/>
      <rect x="0.5" y="0.5" width="19" height="18" rx="5.5" fill="none"/>
    </g>
  </g>
</svg>
